<svg class="typst-doc" viewBox="0 0 284 284" width="284pt" height="284pt" xmlns="http://www.w3.org/2000/svg" xmlns:xlink="http://www.w3.org/1999/xlink" xmlns:h5="http://www.w3.org/1999/xhtml">
  <g class="typst-group">
      <g>
          <g transform="translate(0 0)">
              <g class="typst-group">
                  <g>
                      <g transform="translate(0 0)">
                          <path class="typst-shape" fill="#000000" fill-rule="nonzero" d="M 141.73228 0 C 63.526676 0 0 63.526676 0 141.73228 C 0 141.73228 0 141.73228 0 141.73228 C 0 219.9379 63.526676 283.46457 141.73228 283.46457 C 141.73228 283.46457 141.73228 283.46457 141.73228 283.46457 C 219.9379 283.46457 283.46457 219.9379 283.46457 141.73228 C 283.46457 141.73228 283.46457 141.73228 283.46457 141.73228 C 283.46457 63.526676 219.9379 0 141.73228 0 C 141.73228 0 141.73228 0 141.73228 0 Z "/>
                      </g>
                      <g transform="translate(141.73228346456693 118.34645669291339)">
                          <path class="typst-shape" fill="none" stroke="#fff100" stroke-width="14.173228346456693" stroke-linecap="round" stroke-linejoin="miter" stroke-miterlimit="4" d="M 0 46.771652 C 0 46.771652 0 0 0 0 "/>
                      </g>
                      <g transform="translate(77.95275603149605 141.73228346456693)">
                          <path class="typst-shape" fill="none" stroke="#fff100" stroke-width="14.173228346456693" stroke-linecap="round" stroke-linejoin="miter" stroke-miterlimit="4" d="M 0 2.5 C 0 1.1192881 1.1192881 0 2.5 0 "/>
                      </g>
                      <g transform="translate(77.9527559055118 144.23228346456693)">
                          <path class="typst-shape" fill="none" stroke="#fff100" stroke-width="14.173228346456693" stroke-linecap="round" stroke-linejoin="miter" stroke-miterlimit="4" d="M 0 20.885826 C 0 20.885826 0 0 0 0 "/>
                      </g>
                      <g transform="translate(203.01181102362202 141.7322835905512)">
                          <path class="typst-shape" fill="none" stroke="#fff100" stroke-width="14.173228346456693" stroke-linecap="round" stroke-linejoin="miter" stroke-miterlimit="4" d="M 0 0 C 1.3807119 0 2.5 1.1192881 2.5 2.5 "/>
                      </g>
                      <g transform="translate(80.4527559055118 141.73228346456693)">
                          <path class="typst-shape" fill="none" stroke="#fff100" stroke-width="14.173228346456693" stroke-linecap="round" stroke-linejoin="miter" stroke-miterlimit="4" d="M 0 0 C 0 0 122.55905 0 122.55905 0 "/>
                      </g>
                      <g transform="translate(205.51181102362204 144.23228346456693)">
                          <path class="typst-shape" fill="none" stroke="#fff100" stroke-width="14.173228346456693" stroke-linecap="round" stroke-linejoin="miter" stroke-miterlimit="4" d="M 0 0 C 0 0 0 17.34252 0 17.34252 "/>
                      </g>
                      <g transform="translate(118.34645669291339 165.11811023622047)">
                          <path class="typst-shape" fill="#fff100" fill-rule="nonzero" d="M 7.086614 0 C 3.176334 0 0 3.176334 0 7.086614 C 0 7.086614 0 7.086614 0 7.086614 C 0 7.086614 0 39.68504 0 39.68504 C 0 39.68504 0 39.68504 0 39.68504 C 0 43.595318 3.176334 46.771652 7.086614 46.771652 C 7.086614 46.771652 7.086614 46.771652 7.086614 46.771652 C 7.086614 46.771652 39.68504 46.771652 39.68504 46.771652 C 39.68504 46.771652 39.68504 46.771652 39.68504 46.771652 C 43.595318 46.771652 46.771652 43.595318 46.771652 39.68504 C 46.771652 39.68504 46.771652 39.68504 46.771652 39.68504 C 46.771652 39.68504 46.771652 7.086614 46.771652 7.086614 C 46.771652 7.086614 46.771652 7.086614 46.771652 7.086614 C 46.771652 3.176334 43.595318 0 39.68504 0 C 39.68504 0 39.68504 0 39.68504 0 C 39.68504 0 7.086614 0 7.086614 0 C 7.086614 0 7.086614 0 7.086614 0 Z "/>
                      </g>
                      <g transform="translate(118.34645669291339 71.57480314960631)">
                          <path class="typst-shape" fill="#fff100" fill-rule="nonzero" d="M 7.086614 0 C 3.176334 0 0 3.176334 0 7.086614 C 0 7.086614 0 7.086614 0 7.086614 C 0 7.086614 0 39.68504 0 39.68504 C 0 39.68504 0 39.68504 0 39.68504 C 0 43.595318 3.176334 46.771652 7.086614 46.771652 C 7.086614 46.771652 7.086614 46.771652 7.086614 46.771652 C 7.086614 46.771652 39.68504 46.771652 39.68504 46.771652 C 39.68504 46.771652 39.68504 46.771652 39.68504 46.771652 C 43.595318 46.771652 46.771652 43.595318 46.771652 39.68504 C 46.771652 39.68504 46.771652 39.68504 46.771652 39.68504 C 46.771652 39.68504 46.771652 7.086614 46.771652 7.086614 C 46.771652 7.086614 46.771652 7.086614 46.771652 7.086614 C 46.771652 3.176334 43.595318 0 39.68504 0 C 39.68504 0 39.68504 0 39.68504 0 C 39.68504 0 7.086614 0 7.086614 0 C 7.086614 0 7.086614 0 7.086614 0 Z "/>
                      </g>
                      <g transform="translate(54.56692913385826 165.11811023622047)">
                          <path class="typst-shape" fill="#fff100" fill-rule="nonzero" d="M 7.086614 0 C 3.176334 0 0 3.176334 0 7.086614 C 0 7.086614 0 7.086614 0 7.086614 C 0 7.086614 0 39.68504 0 39.68504 C 0 39.68504 0 39.68504 0 39.68504 C 0 43.595318 3.176334 46.771652 7.086614 46.771652 C 7.086614 46.771652 7.086614 46.771652 7.086614 46.771652 C 7.086614 46.771652 39.68504 46.771652 39.68504 46.771652 C 39.68504 46.771652 39.68504 46.771652 39.68504 46.771652 C 43.595318 46.771652 46.771652 43.595318 46.771652 39.68504 C 46.771652 39.68504 46.771652 39.68504 46.771652 39.68504 C 46.771652 39.68504 46.771652 7.086614 46.771652 7.086614 C 46.771652 7.086614 46.771652 7.086614 46.771652 7.086614 C 46.771652 3.176334 43.595318 0 39.68504 0 C 39.68504 0 39.68504 0 39.68504 0 C 39.68504 0 7.086614 0 7.086614 0 C 7.086614 0 7.086614 0 7.086614 0 Z "/>
                      </g>
                      <g transform="translate(178.58267716535434 161.5748031496063)">
                          <path class="typst-shape" fill="#fff100" fill-rule="nonzero" stroke="#000000" stroke-width="7.086614173228346" stroke-linecap="butt" stroke-linejoin="miter" stroke-miterlimit="4" d="M 10.629921 0 C 4.7645006 0 0 4.7645006 0 10.629921 C 0 10.629921 0 10.629921 0 10.629921 C 0 10.629921 0 43.228348 0 43.228348 C 0 43.228348 0 43.228348 0 43.228348 C 0 49.093765 4.7645006 53.85827 10.629921 53.85827 C 10.629921 53.85827 10.629921 53.85827 10.629921 53.85827 C 10.629921 53.85827 43.228348 53.85827 43.228348 53.85827 C 43.228348 53.85827 43.228348 53.85827 43.228348 53.85827 C 49.093765 53.85827 53.85827 49.093765 53.85827 43.228348 C 53.85827 43.228348 53.85827 43.228348 53.85827 43.228348 C 53.85827 43.228348 53.85827 10.629921 53.85827 10.629921 C 53.85827 10.629921 53.85827 10.629921 53.85827 10.629921 C 53.85827 4.7645006 49.093765 0 43.228348 0 C 43.228348 0 43.228348 0 43.228348 0 C 43.228348 0 10.629921 0 10.629921 0 C 10.629921 0 10.629921 0 10.629921 0 Z "/>
                      </g>
                  </g>
              </g>
          </g>
      </g>
  </g>
</svg>
